<svg width="437" height="49" viewBox="0 0 437 49" fill="none" xmlns="http://www.w3.org/2000/svg">
<path d="M8.67712 26.2967C8.67712 25.1942 8.67712 24.5 8.67712 24.5C8.67712 24.5 8.67712 8.61582 10.9434 6.39041C15.4555 2.04166 33.5446 2.04166 38.0771 6.39041C40.3434 8.61582 40.3434 24.5 40.3434 24.5C40.3434 24.5 40.3434 25.1942 40.3434 26.2967C40.3434 30.5229 39.8942 40.8537 38.0975 42.63C33.5446 46.9583 15.4555 46.9583 10.923 42.6096C9.12629 40.8333 8.73837 30.625 8.67712 26.2967Z" stroke="#FFFAC9" stroke-width="2" stroke-linecap="round" stroke-linejoin="round"/>
<path d="M40.323 26.2967C40.323 30.5229 39.8738 40.8537 38.0771 42.63C33.5446 46.9583 15.4555 46.9583 10.923 42.6096C9.12629 40.8537 8.73837 30.5229 8.67712 26.2762C15.0675 23.1729 33.9325 23.1729 40.323 26.2967Z" stroke="#FFFAC9" stroke-width="2" stroke-linecap="round" stroke-linejoin="round"/>
<path d="M22.2746 12.8012C22.2746 12.8012 22.2746 15.1696 21.6621 15.4962C19.2537 16.1855 16.7002 16.1855 14.2917 15.4962C13.6792 15.1696 13.6792 12.8012 13.6792 12.8012C13.6792 12.8012 13.7609 10.4533 14.2917 10.2083C16.6774 9.55519 19.1948 9.55519 21.5804 10.2083C22.2746 10.4533 22.2746 12.8012 22.2746 12.8012Z" stroke="#FFFAC9" stroke-width="2" stroke-linecap="round" stroke-linejoin="round"/>
<path d="M35.2392 12.8012C35.2392 12.8012 35.2392 15.1696 34.6267 15.4962C32.2438 16.1701 29.7208 16.1701 27.338 15.4962C26.7255 15.1696 26.7255 12.8012 26.7255 12.8012C26.7255 12.8012 26.7255 10.4533 27.338 10.1062C29.7586 9.47145 32.3063 9.50673 34.7084 10.2083C35.2392 10.4533 35.2392 12.8012 35.2392 12.8012Z" stroke="#FFFAC9" stroke-width="2" stroke-linecap="round" stroke-linejoin="round"/>
<path d="M278.938 41.4867H236.063C236.06 40.3225 236.287 39.1693 236.732 38.0935C237.177 37.0177 237.831 36.0407 238.655 35.2188C238.655 35.2188 247.026 27.7463 251.212 26.2558C255.289 24.8682 259.711 24.8682 263.788 26.2558C267.872 27.7463 276.345 35.2188 276.345 35.2188C277.169 36.0407 277.823 37.0177 278.268 38.0935C278.713 39.1693 278.94 40.3225 278.938 41.4867Z" stroke="#FFFAC9" stroke-width="2" stroke-linecap="round" stroke-linejoin="round"/>
<path d="M251.885 13.1075C251.885 11.997 252.215 10.9115 252.832 9.98821C253.449 9.0649 254.326 8.34526 255.351 7.92031C256.377 7.49535 257.506 7.38417 258.595 7.60081C259.685 7.81745 260.685 8.35218 261.47 9.1374C262.255 9.92261 262.79 10.923 263.007 12.0122C263.223 13.1013 263.112 14.2302 262.687 15.2561C262.262 16.282 261.543 17.1589 260.619 17.7759C259.696 18.3928 258.611 18.7221 257.5 18.7221" stroke="#FFFAC9" stroke-width="2" stroke-linecap="round" stroke-linejoin="round"/>
<path d="M257.5 18.7221V25.2146" stroke="#FFFAC9" stroke-width="2" stroke-linecap="round" stroke-linejoin="round"/>
<path d="M86.3096 20.4167V12.25C86.3042 11.8649 86.3751 11.4825 86.5181 11.1249C86.6611 10.7673 86.8735 10.4415 87.143 10.1663C87.4125 9.89115 87.7337 9.67202 88.0883 9.52154C88.4428 9.37107 88.8236 9.29224 89.2088 9.28958H100.173C100.558 9.29224 100.938 9.37107 101.293 9.52154C101.648 9.67202 101.969 9.89115 102.238 10.1663C102.508 10.4415 102.72 10.7673 102.863 11.1249C103.006 11.4825 103.077 11.8649 103.072 12.25V21.6621C103.093 21.8384 103.093 22.0166 103.072 22.1929C99.5469 22.0194 96.0196 22.4827 92.6592 23.5608V23.2546C92.6512 22.8738 92.5683 22.4984 92.4152 22.1497C92.2621 21.801 92.0418 21.4858 91.7669 21.2223C91.492 20.9588 91.1679 20.752 90.813 20.6137C90.4581 20.4755 90.0795 20.4085 89.6988 20.4167H86.3096Z" stroke="#FFFAC9" stroke-width="2" stroke-linecap="round" stroke-linejoin="round"/>
<path d="M103.133 22.1317C103.113 21.9553 103.113 21.7772 103.133 21.6008V12.25C103.133 11.4846 103.436 10.7503 103.975 10.2072C104.514 9.66404 105.246 9.35622 106.012 9.35083H116.996C117.752 9.37198 118.471 9.68611 119.001 10.227C119.53 10.7678 119.829 11.4932 119.834 12.25V20.4167H115.301C114.536 20.4166 113.802 20.7193 113.258 21.2586C112.715 21.7979 112.408 22.5301 112.402 23.2954V23.4383C109.442 22.5262 106.35 22.1189 103.255 22.2337L103.133 22.1317Z" stroke="#FFFAC9" stroke-width="2" stroke-linecap="round" stroke-linejoin="round"/>
<path d="M92.5979 28.42V23.4996C95.9583 22.4215 99.4856 21.9581 103.01 22.1317H103.255C106.35 22.0168 109.442 22.4241 112.402 23.3362V28.42H92.5979Z" stroke="#FFFAC9" stroke-width="2" stroke-linecap="round" stroke-linejoin="round"/>
<path d="M121.059 34.5858H83.9413C83.1778 34.5858 82.4455 34.2825 81.9057 33.7427C81.3658 33.2028 81.0625 32.4706 81.0625 31.7071V23.1933C81.089 22.4477 81.4039 21.7414 81.9409 21.2234C82.478 20.7054 83.1951 20.4162 83.9413 20.4167H89.6988C90.4641 20.4166 91.1985 20.7193 91.7416 21.2586C92.2847 21.7979 92.5925 22.53 92.5979 23.2954V28.5221H112.402V23.1933C112.434 22.4458 112.753 21.7395 113.293 21.222C113.834 20.7046 114.553 20.416 115.301 20.4167H121.059C121.822 20.4167 122.554 20.72 123.094 21.2598C123.634 21.7997 123.938 22.5319 123.938 23.2954V31.8092C123.911 32.5548 123.596 33.2611 123.059 33.7791C122.522 34.2971 121.805 34.5863 121.059 34.5858Z" stroke="#FFFAC9" stroke-width="2" stroke-linecap="round" stroke-linejoin="round"/>
<path d="M92.6183 34.5858H86.4729V39.69H92.6183V34.5858Z" stroke="#FFFAC9" stroke-width="2" stroke-linecap="round" stroke-linejoin="round"/>
<path d="M118.527 34.5858H112.382V39.69H118.527V34.5858Z" stroke="#FFFAC9" stroke-width="2" stroke-linecap="round" stroke-linejoin="round"/>
<path d="M179.5 39.0367C194.71 39.0367 199.917 36.6071 199.917 36.6071C200.202 36.518 200.45 36.3381 200.623 36.0948C200.797 35.8515 200.885 35.5581 200.876 35.2596C200.305 20.3554 194.465 12.8012 179.439 12.8012C164.412 12.8012 158.634 20.4167 158.063 35.2596C158.053 35.5581 158.142 35.8515 158.316 36.0948C158.489 36.3381 158.737 36.518 159.022 36.6071C159.022 36.6071 164.29 39.0367 179.5 39.0367Z" stroke="#FFFAC9" stroke-width="2" stroke-linecap="round" stroke-linejoin="round"/>
<path d="M159.206 42.875C162.146 43.5896 164.29 45.2637 179.5 45.2637C194.71 45.2637 196.854 43.5692 199.794 42.875" stroke="#FFFAC9" stroke-width="2" stroke-linecap="round" stroke-linejoin="round"/>
<path d="M173.15 7.18665C173.15 5.14499 174.518 3.65457 179.5 3.65457C184.482 3.65457 185.85 5.24707 185.85 7.18665" stroke="#FFFAC9" stroke-width="2" stroke-linecap="round" stroke-linejoin="round"/>
<path d="M179.5 3.65457V12.8625" stroke="#FFFAC9" stroke-width="2" stroke-linecap="round" stroke-linejoin="round"/>
<path d="M337.052 37.1175H349.629H352.875C353.726 37.2119 354.508 37.6284 355.061 38.2815C355.614 38.9347 355.896 39.7749 355.849 40.6294C355.802 41.484 355.43 42.2882 354.808 42.8767C354.187 43.4651 353.363 43.7933 352.508 43.7937H337.052" stroke="#FFFAC9" stroke-width="2" stroke-linecap="round" stroke-linejoin="round"/>
<path d="M331.948 17.8238H319.371H316.125C315.28 17.9155 314.501 18.3254 313.947 18.9702C313.393 19.6149 313.105 20.4464 313.141 21.2958C313.177 22.1452 313.536 22.9489 314.143 23.544C314.75 24.139 315.561 24.4808 316.411 24.5H331.948" stroke="#FFFAC9" stroke-width="2" stroke-linecap="round" stroke-linejoin="round"/>
<path d="M337.052 37.1583C336.164 37.1583 335.312 36.8056 334.684 36.1776C334.057 35.5497 333.704 34.698 333.704 33.81C333.704 32.922 334.057 32.0703 334.684 31.4424C335.312 30.8144 336.164 30.4617 337.052 30.4617H347.934" stroke="#FFFAC9" stroke-width="2" stroke-linecap="round" stroke-linejoin="round"/>
<path d="M331.948 17.8646C332.388 17.8646 332.823 17.778 333.229 17.6097C333.635 17.4414 334.005 17.1948 334.316 16.8839C334.626 16.5729 334.873 16.2038 335.041 15.7976C335.21 15.3914 335.296 14.956 335.296 14.5162C335.296 14.0765 335.21 13.6411 335.041 13.2349C334.873 12.8287 334.626 12.4595 334.316 12.1486C334.005 11.8377 333.635 11.5911 333.229 11.4228C332.823 11.2545 332.388 11.1679 331.948 11.1679H321.066" stroke="#FFFAC9" stroke-width="2" stroke-linecap="round" stroke-linejoin="round"/>
<path d="M337.052 43.8142H335.602C333.115 43.6998 330.768 42.6314 329.049 40.8309C327.329 39.0305 326.369 36.6366 326.369 34.1469C326.369 31.6572 327.329 29.2633 329.049 27.4628C330.768 25.6624 333.115 24.5939 335.602 24.4796H349.629C350.97 24.4845 352.275 24.9154 353.355 25.71C354.436 26.5046 355.236 27.6219 355.64 28.9007C356.045 30.1796 356.032 31.5538 355.605 32.8251C355.178 34.0964 354.358 35.1991 353.263 35.9742C352.196 36.7159 350.928 37.1147 349.629 37.1175" stroke="#FFFAC9" stroke-width="2" stroke-linecap="round" stroke-linejoin="round"/>
<path d="M331.948 24.5H333.398C335.885 24.3857 338.232 23.3172 339.952 21.5168C341.671 19.7163 342.631 17.3224 342.631 14.8327C342.631 12.343 341.671 9.94908 339.952 8.14863C338.232 6.34819 335.885 5.27973 333.398 5.16541H319.371C318.025 5.16419 316.713 5.59256 315.626 6.38824C314.54 7.18391 313.735 8.30542 313.33 9.58969C312.925 10.874 312.939 12.254 313.372 13.5292C313.805 14.8045 314.634 15.9084 315.737 16.6804C316.804 17.4221 318.072 17.821 319.371 17.8237" stroke="#FFFAC9" stroke-width="2" stroke-linecap="round" stroke-linejoin="round"/>
<path d="M335.602 43.8142H322.72C320.232 43.6998 317.885 42.6314 316.166 40.8309C314.446 39.0305 313.486 36.6366 313.486 34.1469C313.486 31.6572 314.446 29.2633 316.166 27.4628C317.885 25.6624 320.232 24.5939 322.72 24.4796H335.602" stroke="#FFFAC9" stroke-width="2" stroke-linecap="round" stroke-linejoin="round"/>
<path d="M333.397 24.5H346.28C348.767 24.3857 351.115 23.3172 352.834 21.5168C354.554 19.7163 355.513 17.3224 355.513 14.8327C355.513 12.343 354.554 9.94908 352.834 8.14863C351.115 6.34818 348.767 5.27973 346.28 5.16541H333.397" stroke="#FFFAC9" stroke-width="2" stroke-linecap="round" stroke-linejoin="round"/>
<path d="M410.703 5.26749H412.5C412.5 5.26749 428.384 5.26749 430.61 7.55415C434.958 12.0458 434.958 30.1554 430.61 34.7083C428.384 36.9542 412.5 36.9542 412.5 36.9542H410.703C406.477 36.9542 396.146 36.4846 394.37 34.6879C390.042 30.1554 390.042 12.0458 394.39 7.53374C396.167 5.71665 406.477 5.34915 410.703 5.26749Z" stroke="#FFFAC9" stroke-width="2" stroke-linecap="round" stroke-linejoin="round"/>
<path d="M402.108 43.7529L412.5 41.895L422.892 43.7529" stroke="#FFFAC9" stroke-width="2" stroke-linecap="round" stroke-linejoin="round"/>
</svg>
